<?xml version="1.0" standalone="no"?>
<!DOCTYPE svg PUBLIC "-//W3C//DTD SVG 1.1//EN" "http://www.w3.org/Graphics/SVG/1.1/DTD/svg11.dtd" >
<svg>
<metadata>
Created by FontForge 20090622 at Tue Aug  2 05:31:57 2016
 By deploy user
Copyright (c) Daniel Utz, 2008. All rights reserved. PDF-RiP (c) 2008 by AcnApyX.
</metadata>
<defs>
<font id="NettoOT" horiz-adv-x="520" >
  <font-face 
    font-family="Netto OT"
    font-weight="400"
    font-stretch="normal"
    units-per-em="1000"
    panose-1="2 0 5 0 3 0 0 2 0 4"
    ascent="800"
    descent="-200"
    x-height="501"
    cap-height="711"
    bbox="-365 -223 1144 898"
    underline-thickness="50"
    underline-position="-50"
    unicode-range="U+0020-U+FB02"
  />
<missing-glyph 
d="M144 0q-20 0 -33.5 13.5t-13.5 33.5v607q0 20 13.5 33.5t33.5 13.5h232q20 0 33.5 -13.5t13.5 -33.5v-607q0 -20 -13.5 -33.5t-33.5 -13.5h-232zM355 636h-190v-571h190v571z" />
    <glyph glyph-name="fi" unicode="fi" horiz-adv-x="516" 
d="M70 580q0 27 10.5 51t28 41.5t41.5 28t51 10.5q28 0 57 -6q28 -7 28 -33q0 -16 -10.5 -24t-22.5 -8q-13 0 -24 3t-28 3q-26 0 -44.5 -18.5t-18.5 -44.5v-82h115q14 0 23.5 -9.5t9.5 -23.5t-9.5 -23t-23.5 -9h-115v-412q0 -14 -10 -24t-24 -10t-24 10t-10 24v556zM367 477
q0 14 10 24t24 10t24 -10t10 -24v-453q0 -14 -10 -24t-24 -10t-24 10t-10 24v453zM401 620q-19 0 -32 13.5t-13 32.5t13 32t32 13t32 -13t13 -32t-13 -32.5t-32 -13.5z" />
    <glyph glyph-name="fl" unicode="fl" horiz-adv-x="519" 
d="M70 580q0 27 10.5 51t28 41.5t41.5 28t51 10.5q28 0 57 -6q28 -7 28 -33q0 -16 -10.5 -24t-22.5 -8q-13 0 -24 3t-28 3q-26 0 -44.5 -18.5t-18.5 -44.5v-82h115q14 0 23.5 -9.5t9.5 -23.5t-9.5 -23t-23.5 -9h-115v-412q0 -14 -10 -24t-24 -10t-24 10t-10 24v556zM376 677
q0 14 10 24t24 10t24 -10t10 -24v-653q0 -14 -10 -24t-24 -10t-24 10t-10 24v653z" />
    <glyph glyph-name=".notdef" 
d="M144 0q-20 0 -33.5 13.5t-13.5 33.5v607q0 20 13.5 33.5t33.5 13.5h232q20 0 33.5 -13.5t13.5 -33.5v-607q0 -20 -13.5 -33.5t-33.5 -13.5h-232zM355 636h-190v-571h190v571z" />
    <glyph glyph-name=".null" horiz-adv-x="0" 
 />
    <glyph glyph-name="nonmarkingreturn" horiz-adv-x="250" 
 />
    <glyph glyph-name="space" unicode=" " horiz-adv-x="250" 
 />
    <glyph glyph-name="space" unicode="&#xa0;" horiz-adv-x="250" 
 />
    <glyph glyph-name="slash" unicode="/" horiz-adv-x="546" 
d="M371 689q4 11 12.5 16.5t19.5 5.5q13 0 23 -10t10 -24q0 -8 -3 -15l-258 -650q-4 -11 -12.5 -16.5t-19.5 -5.5q-14 0 -23.5 10t-9.5 24q0 8 3 16z" />
    <glyph glyph-name="zero" unicode="0" horiz-adv-x="553" 
d="M488 202q0 -48 -15.5 -87t-43 -66.5t-66.5 -43t-86 -15.5q-48 0 -87 15.5t-66.5 43t-43 66.5t-15.5 87v297q0 48 15.5 87t43 66.5t66.5 43t87 15.5q47 0 86 -15.5t66.5 -43t43 -66.5t15.5 -87v-297zM420 504q0 68 -38 106t-105 38q-68 0 -106 -38t-38 -106v-307
q0 -68 38 -106t106 -38q67 0 105 38q38 40 38 106v307z" />
    <glyph glyph-name="one" unicode="1" horiz-adv-x="356" 
d="M222 -10q-14 0 -24 10t-10 24v604l-119 -69q-8 -5 -17 -5q-13 0 -22.5 8t-9.5 22q0 9 4.5 17t12.5 13l158 92q9 5 20 5q17 0 29 -12t12 -29v-646q0 -14 -10 -24t-24 -10z" />
    <glyph glyph-name="two" unicode="2" horiz-adv-x="466" 
d="M70 0q-17 0 -28.5 11.5t-11.5 28.5q0 14 8 25l246 320q18 23 35.5 58.5t17.5 76.5q0 58 -32 93t-89 35q-34 0 -63 -6.5t-64 -24.5q-10 -4 -16 -4q-13 0 -23 8.5t-10 23.5q0 9 5 17.5t14 12.5q44 23 80.5 29.5t76.5 6.5q42 0 77 -14t60 -39t38.5 -60t13.5 -78
q0 -27 -6 -52.5t-15.5 -47.5t-21.5 -40.5t-23 -33.5l-216 -281h254q14 0 24 -9t10 -23t-10 -23.5t-24 -9.5h-307z" />
    <glyph glyph-name="three" unicode="3" horiz-adv-x="481" 
d="M182 331q-14 0 -23.5 9.5t-9.5 23.5t10 23t23 9h14q28 0 53 10t44 27t29.5 39.5t10.5 47.5q0 58 -32 93t-89 35q-34 0 -62.5 -6.5t-63.5 -24.5q-10 -5 -18 -5q-13 0 -22.5 9t-9.5 23q0 20 19 30q44 23 81 30t76 7q42 0 77 -14t60 -39t38.5 -60t13.5 -78q0 -47 -22.5 -87
t-60.5 -66q47 -27 75 -72.5t28 -100.5q0 -45 -15.5 -82.5t-43 -64.5t-65.5 -42t-84 -15q-48 0 -87.5 9t-76.5 27q-9 5 -14 13t-5 17q0 13 9.5 23t23.5 10q8 0 16 -5q30 -15 62 -23t72 -8q64 0 102 39t38 102q0 28 -12 53t-32 43.5t-47.5 29.5t-58.5 11h-21z" />
    <glyph glyph-name="four" unicode="4" horiz-adv-x="463" 
d="M349 158v-134q0 -14 -10 -24t-24 -10t-24 10t-10 24v134h-216q-17 0 -28.5 12t-11.5 29q0 8 3 16l171 473q4 11 12.5 17t19.5 6q13 0 22 -10t9 -24q0 -4 -2 -12l-161 -442h182v137q0 14 10 24t24 10t24 -10t10 -24v-137h76q14 0 23.5 -9t9.5 -23t-9.5 -23.5t-23.5 -9.5
h-76z" />
    <glyph glyph-name="five" unicode="5" horiz-adv-x="497" 
d="M437 186q0 -41 -15.5 -76.5t-42 -62t-62 -42t-75.5 -15.5q-48 0 -87.5 9t-76.5 27q-9 5 -13.5 13t-4.5 17q0 13 9 22.5t23 9.5q9 0 16 -4q29 -17 61.5 -24t72.5 -7q26 0 49 11t40.5 29t27.5 42t10 51v51q0 27 -10 50.5t-27.5 41t-40.5 28t-49 10.5q-60 0 -114 -28
q-10 -5 -19 -5q-17 0 -28.5 11.5t-11.5 28.5v280q0 20 13.5 33.5t33.5 13.5h269q14 0 23.5 -9.5t9.5 -23.5t-9.5 -23t-23.5 -9h-248v-225q25 10 51.5 14.5t53.5 4.5q40 0 75.5 -15t62 -41t42 -61.5t15.5 -75.5v-51z" />
    <glyph glyph-name="six" unicode="6" horiz-adv-x="501" 
d="M456 186q0 -41 -15.5 -76.5t-42 -62t-62.5 -42t-76 -15.5t-75.5 15.5t-62 42t-42 62t-15.5 76.5v200q0 149 60 232q67 93 200 93q17 0 34 -1.5t32 -5.5q12 -2 19 -11.5t7 -20.5q0 -13 -9 -22.5t-24 -9.5q-5 0 -9 1q-11 2 -23.5 4.5t-26.5 2.5q-97 0 -145 -66
q-23 -32 -35 -82.5t-12 -114.5q26 23 58.5 35.5t68.5 12.5q40 0 76 -15.5t62.5 -42t42 -62.5t15.5 -76v-51zM388 242q0 27 -10 50t-27.5 40.5t-40.5 27.5t-50 10q-26 0 -49.5 -10t-40.5 -27.5t-27 -40.5t-10 -50v-61q0 -27 10 -50t27 -40.5t40.5 -27.5t49.5 -10q27 0 50 10
t40.5 27.5t27.5 40.5t10 50v61z" />
    <glyph glyph-name="seven" unicode="7" horiz-adv-x="442" 
d="M340 636h-297q-14 0 -23.5 9t-9.5 23t9.5 23.5t23.5 9.5h334q17 0 28.5 -11.5t11.5 -28.5q0 -3 -0.5 -8.5t-2.5 -9.5l-248 -631q-4 -11 -12.5 -16.5t-18.5 -5.5q-13 0 -23 10t-10 24q0 7 3 13z" />
    <glyph glyph-name="eight" unicode="8" horiz-adv-x="530" 
d="M375 368q43 -27 69 -72.5t26 -100.5q0 -42 -16 -79.5t-44 -65.5t-65.5 -44t-79.5 -16t-79.5 16t-65.5 44t-44 65.5t-16 79.5q0 55 26 100.5t69 72.5q-36 26 -57.5 66t-21.5 88q0 39 15 73.5t40.5 60t60 40.5t73.5 15t73.5 -15t60 -40.5t40.5 -60t15 -73.5
q0 -48 -21.5 -88t-57.5 -66zM265 399q25 0 47 10t38.5 26.5t26 39t9.5 47.5t-9.5 48t-26 40t-38.5 27.5t-47 10.5t-47 -10.5t-38.5 -27.5t-26 -40t-9.5 -48t9.5 -47.5t26 -39t38.5 -26.5t47 -10zM265 53q28 0 53 11.5t44 31t29.5 45.5t10.5 54t-10.5 54t-29.5 45t-44 30.5
t-53 11.5q-29 0 -53.5 -11.5t-43.5 -30.5t-29.5 -45t-10.5 -54t10.5 -54t29.5 -45.5t43.5 -31t53.5 -11.5z" />
    <glyph glyph-name="nine" unicode="9" horiz-adv-x="501" 
d="M436 315q0 -149 -60 -232q-69 -93 -200 -93q-37 0 -65 7q-13 3 -20 12t-7 21q0 16 10.5 24t21.5 8q3 0 5.5 -0.5t6.5 -1.5l22.5 -4t25.5 -2q98 0 145 64q23 32 35 83t12 115q-26 -23 -58.5 -35.5t-69.5 -12.5q-40 0 -75.5 15.5t-62 42t-42 62t-15.5 76.5v51q0 40 15.5 76
t42 62.5t62 42t75.5 15.5t76 -15.5t62.5 -42t42 -62.5t15.5 -76v-200zM368 520q0 27 -10 50t-27.5 40.5t-40.5 27.5t-50 10q-26 0 -49.5 -10t-40.5 -27.5t-27 -40.5t-10 -50v-61q0 -27 10 -50t27 -40.5t40.5 -27.5t49.5 -10q27 0 50 10t40.5 27.5t27.5 40.5t10 50v61z" />
    <glyph glyph-name="A" unicode="A" horiz-adv-x="550" 
d="M408 194h-266l-61 -181q-4 -11 -12.5 -17t-19.5 -6q-13 0 -23.5 10t-10.5 24q0 3 0.5 5.5t1.5 5.5l220 650q4 11 14.5 18.5t23.5 7.5t23.5 -7.5t14.5 -18.5l220 -650q1 -3 1.5 -5.5t0.5 -5.5q0 -13 -10 -23.5t-24 -10.5q-11 0 -19.5 6t-12.5 17zM275 594l-110 -333h220z
" />
    <glyph glyph-name="B" unicode="B" horiz-adv-x="534" 
d="M122 0q-20 0 -33.5 13.5t-13.5 33.5v607q0 20 13.5 33.5t33.5 13.5h155q41 0 75.5 -13t59 -37t38.5 -58.5t14 -77.5q0 -45 -21.5 -83.5t-59.5 -64.5q45 -26 73 -69.5t28 -98.5q0 -46 -14.5 -83t-41 -62.5t-63.5 -39.5t-82 -14h-161zM260 397q28 0 52.5 9t42.5 25
t28.5 37.5t10.5 46.5q0 57 -30 88t-87 31h-132v-237h115zM283 67q59 0 95 32t36 100q0 27 -11.5 51t-31 42t-46.5 28t-58 10h-122v-263h138z" />
    <glyph glyph-name="C" unicode="C" horiz-adv-x="485" 
d="M55 470q0 109 66 175t175 66q38 0 73.5 -11.5t70.5 -32.5q15 -9 15 -28q0 -14 -9 -23.5t-24 -9.5q-5 0 -9.5 1t-9.5 4q-26 17 -52.5 26t-54.5 9q-80 0 -126 -46q-45 -47 -45 -127v-245q0 -81 45 -127q46 -46 126 -46q28 0 54.5 9.5t52.5 26.5q5 3 9.5 4t9.5 1
q14 0 23.5 -9.5t9.5 -24.5q0 -19 -15 -28q-35 -21 -70.5 -32.5t-73.5 -11.5q-109 0 -175 66q-66 68 -66 175v239z" />
    <glyph glyph-name="D" unicode="D" horiz-adv-x="566" 
d="M122 0q-20 0 -33.5 13.5t-13.5 33.5v607q0 20 13.5 33.5t33.5 13.5h132q115 0 187 -70q35 -34 52.5 -80.5t17.5 -103.5v-192q0 -57 -17.5 -104t-52.5 -81q-72 -70 -187 -70h-132zM441 447q0 87 -49.5 137t-137.5 50h-109v-567h109q88 0 137.5 50t49.5 138v192z" />
    <glyph glyph-name="E" unicode="E" horiz-adv-x="488" 
d="M122 0q-20 0 -33.5 13.5t-13.5 33.5v607q0 20 13.5 33.5t33.5 13.5h291q14 0 24 -10t10 -24t-10 -23.5t-24 -9.5h-268v-238h255q14 0 24 -9.5t10 -23.5t-9.5 -24t-24.5 -10h-255v-262h274q14 0 24 -9.5t10 -23.5t-10 -24t-24 -10h-297z" />
    <glyph glyph-name="F" unicode="F" horiz-adv-x="458" 
d="M145 330v-306q0 -14 -10.5 -24t-24.5 -10t-24.5 10t-10.5 24v630q0 20 13.5 33.5t33.5 13.5h287q14 0 24 -10t10 -24t-10 -23.5t-24 -9.5h-264v-237h251q14 0 24 -10t10 -24t-10 -23.5t-24 -9.5h-251z" />
    <glyph glyph-name="G" unicode="G" horiz-adv-x="549" 
d="M424 308h-115q-14 0 -24 9.5t-10 23.5t10 24t24 10h139q19 0 32.5 -13.5t13.5 -33.5v-262q0 -14 -7 -25.5t-20 -17.5q-35 -16 -80.5 -24.5t-90.5 -8.5q-109 0 -175 66q-66 68 -66 175v239q0 109 66 175t175 66q38 0 80 -11.5t76 -31.5q8 -5 12 -13t4 -17
q0 -13 -9.5 -22.5t-23.5 -9.5q-10 0 -18 4q-22 11 -54.5 23.5t-66.5 12.5q-79 0 -125 -46q-46 -48 -46 -127v-245q0 -79 46 -127q46 -46 125 -46q33 0 66.5 6t61.5 16v231z" />
    <glyph glyph-name="H" unicode="H" horiz-adv-x="586" 
d="M441 330h-296v-305q0 -14 -10.5 -24.5t-24.5 -10.5t-24.5 10.5t-10.5 24.5v651q0 14 10.5 24.5t24.5 10.5t24.5 -10.5t10.5 -24.5v-279h296v279q0 14 10.5 24.5t24.5 10.5t24.5 -10.5t10.5 -24.5v-651q0 -14 -10.5 -24.5t-24.5 -10.5t-24.5 10.5t-10.5 24.5v305z" />
    <glyph glyph-name="I" unicode="I" horiz-adv-x="220" 
d="M75 676q0 14 10.5 24.5t24.5 10.5t24.5 -10.5t10.5 -24.5v-651q0 -14 -10.5 -24.5t-24.5 -10.5t-24.5 10.5t-10.5 24.5v651z" />
    <glyph glyph-name="J" unicode="J" horiz-adv-x="366" 
d="M226 677q0 14 10.5 24t24.5 10t24.5 -10t10.5 -24v-507q0 -37 -14 -70t-38.5 -57.5t-57 -38.5t-69.5 -14q-16 0 -31 1t-30 4q-14 3 -22.5 11.5t-8.5 21.5q0 17 10.5 26t23.5 9q6 0 20.5 -3t37.5 -3t43 9t34.5 24.5t23 36t8.5 43.5v507z" />
    <glyph glyph-name="K" unicode="K" horiz-adv-x="500" 
d="M145 321v-296q0 -14 -10.5 -24.5t-24.5 -10.5t-24.5 10.5t-10.5 24.5v651q0 14 10.5 24.5t24.5 10.5t24.5 -10.5t10.5 -24.5v-271l268 295q11 11 25 11t24 -10t10 -24q0 -13 -9 -23l-266 -291l280 -316q8 -9 8 -23q0 -13 -9.5 -23.5t-23.5 -10.5q-16 0 -26 12z" />
    <glyph glyph-name="L" unicode="L" horiz-adv-x="468" 
d="M122 0q-20 0 -33.5 13.5t-13.5 33.5v629q0 14 10.5 24.5t24.5 10.5t24.5 -10.5t10.5 -24.5v-609h274q14 0 24 -9.5t10 -23.5t-10 -24t-24 -10h-297z" />
    <glyph glyph-name="M" unicode="M" horiz-adv-x="728" 
d="M583 555l-183 -355q-11 -22 -36 -22t-36 22l-183 355v-530q0 -14 -10.5 -24.5t-24.5 -10.5t-24.5 10.5t-10.5 24.5v645q0 17 11.5 29t28.5 12q24 0 37 -24l212 -409l212 409q13 24 37 24q17 0 28.5 -12t11.5 -29v-645q0 -14 -10.5 -24.5t-24.5 -10.5t-24.5 10.5
t-10.5 24.5v530z" />
    <glyph glyph-name="N" unicode="N" horiz-adv-x="593" 
d="M145 557v-532q0 -14 -10.5 -24.5t-24.5 -10.5t-24.5 10.5t-10.5 24.5v645q0 17 11.5 29t28.5 12q25 0 36 -21l297 -547v533q0 14 10.5 24.5t24.5 10.5t24.5 -10.5t10.5 -24.5v-645q0 -17 -12 -29t-29 -12q-11 0 -20.5 5.5t-14.5 15.5z" />
    <glyph glyph-name="O" unicode="O" horiz-adv-x="566" 
d="M511 218q0 -102 -63 -165t-165 -63t-165 63t-63 165v265q0 102 63 165t165 63t165 -63t63 -165v-265zM441 485q0 75 -43 118t-115 43t-115 -43t-43 -118v-270q0 -74 43 -117t115 -43t115 43t43 117v270z" />
    <glyph glyph-name="P" unicode="P" horiz-adv-x="519" 
d="M75 654q0 20 13.5 33.5t33.5 13.5h158q91 0 147 -56q57 -57 57 -150q0 -90 -54 -144q-57 -55 -150 -55h-135v-272q0 -14 -10.5 -24t-24.5 -10t-24.5 10t-10.5 24v630zM278 363q64 0 102 36q34 34 34 96q0 65 -37 102t-99 37h-133v-271h133z" />
    <glyph glyph-name="Q" unicode="Q" horiz-adv-x="570" 
d="M213 1q-28 8 -51.5 20t-43.5 32q-63 63 -63 165v265q0 102 63 165t165 63t165 -63t63 -165v-265q0 -102 -63 -165q-11 -11 -24.5 -20t-27.5 -17l190 -51q11 -3 17.5 -12t6.5 -20q0 -14 -10 -23t-24 -9q-7 0 -13 2zM441 486q0 75 -42 117q-43 43 -116 43t-116 -43
q-42 -42 -42 -117v-269q0 -75 42 -117q43 -43 116 -43t116 43q42 42 42 117v269z" />
    <glyph glyph-name="R" unicode="R" horiz-adv-x="528" 
d="M263 312h-118v-287q0 -14 -10.5 -24.5t-24.5 -10.5t-24.5 10.5t-10.5 24.5v629q0 20 13.5 33.5t33.5 13.5h178q87 0 140 -53q55 -55 55 -145q0 -77 -42 -127t-114 -61l155 -274q4 -7 4 -16t-4.5 -17t-12.5 -13t-17 -5q-19 0 -29 18zM298 379q60 0 94 32q33 31 33 92
q0 30 -8.5 55t-25.5 42q-34 34 -93 34h-153v-255h153z" />
    <glyph glyph-name="S" unicode="S" horiz-adv-x="474" 
d="M155 363q-28 13 -50 28.5t-37.5 35.5t-24 46.5t-8.5 62.5q0 41 17 73.5t45.5 55t66.5 34.5t80 12q51 0 89 -9.5t73 -23.5q11 -4 16.5 -12.5t5.5 -19.5q0 -13 -10 -23t-24 -10q-8 0 -14 3q-30 13 -62.5 21.5t-73.5 8.5q-24 0 -48.5 -5.5t-45 -19t-33 -35t-12.5 -52.5
q0 -38 20 -63.5t60 -45.5l109 -53q28 -14 54.5 -30.5t46.5 -38.5t32 -52t12 -70q0 -47 -17.5 -82.5t-46.5 -59.5t-68 -36.5t-82 -12.5q-45 0 -87.5 10.5t-82.5 27.5q-9 4 -14.5 12.5t-5.5 18.5q0 14 10 23.5t24 9.5q8 0 14 -3q34 -16 69 -25t73 -9q73 0 108.5 33t35.5 93
q0 24 -9 43.5t-23.5 35.5t-33.5 28t-39 22z" />
    <glyph glyph-name="T" unicode="T" horiz-adv-x="479" 
d="M204 634h-165q-14 0 -24 9.5t-10 23.5t10 24t24 10h401q14 0 24 -10t10 -24t-10 -23.5t-24 -9.5h-166v-609q0 -14 -10.5 -24.5t-24.5 -10.5t-24.5 10.5t-10.5 24.5v609z" />
    <glyph glyph-name="U" unicode="U" horiz-adv-x="592" 
d="M457 676q0 14 10.5 24.5t24.5 10.5t24.5 -10.5t10.5 -24.5v-455q0 -104 -63 -167q-64 -64 -168 -64t-168 64q-63 63 -63 167v455q0 14 10.5 24.5t24.5 10.5t24.5 -10.5t10.5 -24.5v-458q0 -37 10.5 -67.5t31.5 -51.5q44 -44 119 -44t119 44q21 21 31.5 51.5t10.5 67.5
v458z" />
    <glyph glyph-name="V" unicode="V" horiz-adv-x="521" 
d="M12 666q-1 3 -1.5 5.5t-0.5 5.5q0 14 9 24t25 10q11 0 20 -6.5t13 -17.5l184 -577l183 577q4 11 13 17.5t20 6.5q14 0 24 -9.5t10 -24.5q0 -3 -0.5 -5.5t-1.5 -5.5l-210 -648q-10 -28 -39 -28q-28 0 -38 28z" />
    <glyph glyph-name="W" unicode="W" horiz-adv-x="770" 
d="M385 564l-129 -544q-3 -13 -14 -21.5t-25 -8.5t-24.5 8t-14.5 22l-162 649q-1 4 -1 10q0 12 9.5 22t23.5 10q11 0 21 -7t13 -19l135 -549l129 545q3 14 14 22t25 8t25 -8t14 -22l129 -545l135 549q3 12 13 19t21 7q13 0 23 -9.5t10 -23.5q0 -5 -1 -9l-162 -649
q-4 -14 -14.5 -22t-24.5 -8t-25 8.5t-14 21.5z" />
    <glyph glyph-name="X" unicode="X" horiz-adv-x="508" 
d="M254 291l-182 -285q-10 -16 -28 -16q-13 0 -23.5 10t-10.5 25q0 9 5 17l200 311l-196 306q-2 4 -4 8.5t-2 9.5q0 13 10 23.5t24 10.5q18 0 29 -16l178 -280l178 280q11 16 29 16q14 0 23.5 -9.5t9.5 -24.5q0 -11 -5 -18l-196 -306l200 -311q5 -8 5 -17q0 -14 -10 -24.5
t-25 -10.5q-18 0 -28 16z" />
    <glyph glyph-name="Y" unicode="Y" horiz-adv-x="488" 
d="M210 312l-196 348q-4 7 -4 17q0 13 9.5 23.5t24.5 10.5q20 0 29 -17l171 -310l171 310q5 8 13 12.5t17 4.5q13 0 23 -10t10 -24q0 -9 -4 -17l-196 -348v-288q0 -14 -10 -24t-24 -10t-24 10t-10 24v288z" />
    <glyph glyph-name="Z" unicode="Z" horiz-adv-x="489" 
d="M60 0q-17 0 -28.5 11.5t-11.5 28.5q0 12 6 21l351 574h-321q-14 0 -23.5 9t-9.5 23t9.5 24t23.5 10h370q17 0 28.5 -11.5t11.5 -28.5q0 -12 -6 -21l-352 -574h327q14 0 24 -9t10 -23q0 -15 -10 -24.5t-24 -9.5h-375z" />
    <glyph glyph-name="bracketleft" unicode="[" horiz-adv-x="339" 
d="M99 -145q-14 0 -24 9.5t-10 23.5v857q0 14 10 24t24 10h137q13 0 23 -9t10 -23t-9.5 -23.5t-23.5 -9.5h-103v-794h103q14 0 23.5 -9t9.5 -23t-9.5 -23.5t-23.5 -9.5h-137z" />
    <glyph glyph-name="bracketright" unicode="]" horiz-adv-x="344" 
d="M108 -145q-14 0 -23.5 9.5t-9.5 23.5t9.5 23t23.5 9h103v794h-103q-14 0 -23.5 9.5t-9.5 23.5t10 23t23 9h137q14 0 24 -10t10 -24v-857q0 -14 -10 -23.5t-24 -9.5h-137z" />
    <glyph glyph-name="a" unicode="a" horiz-adv-x="470" 
d="M405 59q0 -15 -9 -27t-23 -17q-36 -12 -73.5 -18.5t-76.5 -6.5q-91 0 -139 43q-44 39 -44 111q0 70 44 111q23 21 58 30.5t81 9.5h114v63q0 45 -29 67.5t-77 22.5q-30 0 -58 -8.5t-57 -25.5q-8 -5 -16 -5q-14 0 -24 8.5t-10 23.5q0 19 17 30q35 22 73 31t75 9
q35 0 66.5 -9.5t55.5 -28.5t38 -47.5t14 -66.5v-300zM337 232h-114q-38 0 -61 -8t-35 -21t-15.5 -28.5t-3.5 -30.5t3.5 -31t15.5 -29.5t35 -22t61 -8.5q58 0 114 17v162z" />
    <glyph glyph-name="b" unicode="b" horiz-adv-x="490" 
d="M253 -10q-40 0 -77.5 6.5t-73.5 18.5q-14 5 -23 17t-9 27v618q0 14 10 24t24 10t24 -10t10 -24v-196q26 14 55 22t60 8q84 0 133 -49.5t49 -133.5v-155q0 -41 -13 -74.5t-37 -57.5t-57.5 -37.5t-74.5 -13.5zM367 333q0 54 -30 84.5t-84 30.5q-32 0 -62 -9t-53 -31v-338
q56 -17 115 -17q54 0 84 30.5t30 84.5v165z" />
    <glyph glyph-name="c" unicode="c" horiz-adv-x="413" 
d="M50 328q0 41 13 74.5t37 57.5t58 37.5t75 13.5q69 0 131 -30q19 -10 19 -30q0 -14 -10 -23t-24 -9q-8 0 -15 3q-24 12 -49.5 19t-51.5 7q-54 0 -84.5 -30.5t-30.5 -84.5v-165q0 -54 30.5 -84.5t84.5 -30.5q26 0 52 7t49 18q8 4 15 4q14 0 24 -9t10 -23q0 -21 -19 -30
q-62 -30 -131 -30q-41 0 -75 13.5t-58 37.5t-37 57.5t-13 74.5v155z" />
    <glyph glyph-name="d" unicode="d" horiz-adv-x="485" 
d="M232 -10q-41 0 -74.5 13.5t-57.5 37.5t-37 57.5t-13 74.5v155q0 84 49 133.5t133 49.5q31 0 60 -8t55 -22v196q0 14 10 24t24 10t24 -10t10 -24v-618q0 -15 -9 -27t-23 -17q-36 -12 -73.5 -18.5t-77.5 -6.5zM118 168q0 -54 30 -84.5t84 -30.5q59 0 115 17v338
q-23 22 -53 31t-62 9q-54 0 -84 -30.5t-30 -84.5v-165z" />
    <glyph glyph-name="e" unicode="e" horiz-adv-x="465" 
d="M118 229v-56q0 -54 30.5 -87t84.5 -33q30 0 58.5 8t55.5 20q7 3 14 3q14 0 24 -9t10 -23q0 -21 -19 -30q-34 -17 -69.5 -24.5t-73.5 -7.5q-41 0 -75 13.5t-58 37.5t-37 57.5t-13 74.5v155q0 41 13 74.5t37 57.5t58 37.5t75 13.5t74.5 -13.5t57.5 -37.5t37 -57.5t13 -74.5
v-52q0 -20 -13.5 -33.5t-33.5 -13.5h-250zM347 333q0 54 -30 84.5t-84 30.5t-84.5 -30.5t-30.5 -84.5v-41h229v41z" />
    <glyph glyph-name="f" unicode="f" horiz-adv-x="301" 
d="M70 580q0 27 10.5 51t28 41.5t41.5 28t51 10.5q28 0 57 -6q28 -7 28 -33q0 -16 -10.5 -24t-22.5 -8q-13 0 -24 3t-28 3q-26 0 -44.5 -18.5t-18.5 -44.5v-82h115q14 0 23.5 -9.5t9.5 -23.5t-9.5 -23t-23.5 -9h-115v-412q0 -14 -10 -24t-24 -10t-24 10t-10 24v556z" />
    <glyph glyph-name="g" unicode="g" horiz-adv-x="485" 
d="M347 25q-26 -18 -55 -26.5t-59 -8.5q-41 0 -75 13.5t-58 37.5t-37 57.5t-13 74.5v155q0 41 13 74.5t37 57.5t58 37.5t75 13.5q39 0 77 -6t73 -19q14 -5 23 -17t9 -27v-482q0 -41 -13 -75t-37 -58t-57.5 -37t-74.5 -13q-37 0 -71.5 8t-67.5 22q-20 8 -20 30q0 14 9.5 23.5
t23.5 9.5q5 0 13 -3q26 -11 55 -19t58 -8q54 0 84 33t30 87v65zM347 431q-56 17 -114 17q-54 0 -84.5 -30.5t-30.5 -84.5v-165q0 -54 30.5 -84.5t84.5 -30.5q32 0 61.5 11.5t52.5 33.5v333z" />
    <glyph glyph-name="h" unicode="h" horiz-adv-x="500" 
d="M367 333q0 54 -30 84.5t-84 30.5q-67 0 -115 -45v-379q0 -14 -10 -24t-24 -10t-24 10t-10 24v653q0 14 10 24t24 10t24 -10t10 -24v-196q26 14 55 22t60 8q41 0 74.5 -13.5t57.5 -37.5t37 -57.5t13 -74.5v-304q0 -14 -10 -24t-24 -10t-24 10t-10 24v309z" />
    <glyph glyph-name="i" unicode="i" horiz-adv-x="230" 
d="M81 477q0 14 10 24t24 10t24 -10t10 -24v-453q0 -14 -10 -24t-24 -10t-24 10t-10 24v453zM115 620q-19 0 -32 13.5t-13 32.5t13 32t32 13t32 -13t13 -32t-13 -32.5t-32 -13.5z" />
    <glyph glyph-name="j" unicode="j" horiz-adv-x="237" 
d="M127 620q-19 0 -32 13.5t-13 32.5t13 32t32 13t32 -13t13 -32t-13 -32.5t-32 -13.5zM93 477q0 14 10 24t24 10t24 -10t10 -24v-513q0 -35 -10 -66.5t-28 -56t-44 -41t-57 -22.5q-5 -1 -6.5 -1h-3.5q-11 0 -21.5 8.5t-10.5 24.5q0 11 7 20t19 11q42 10 64.5 41t22.5 79
v516z" />
    <glyph glyph-name="k" unicode="k" horiz-adv-x="434" 
d="M143 241v-217q0 -14 -10 -24t-24 -10t-24 10t-10 24v653q0 14 10 24t24 10t24 -10t10 -24v-362l208 187q9 9 23 9q13 0 23.5 -9.5t10.5 -23.5q0 -15 -11 -26l-201 -175l210 -230q9 -9 9 -23t-10 -24t-24 -10q-16 0 -26 12z" />
    <glyph glyph-name="l" unicode="l" horiz-adv-x="218" 
d="M75 677q0 14 10 24t24 10t24 -10t10 -24v-653q0 -14 -10 -24t-24 -10t-24 10t-10 24v653z" />
    <glyph glyph-name="m" unicode="m" horiz-adv-x="752" 
d="M619 344q0 21 -8 40t-22 33.5t-33 22.5t-40 8q-58 0 -104 -34v-390q0 -14 -9.5 -24t-23.5 -10t-24 10t-10 24v353q0 17 -7.5 30.5t-20.5 22.5t-29 13.5t-33 4.5q-61 0 -117 -19v-405q0 -14 -10 -24t-24 -10t-24 10t-10 24v415q0 14 8 26t22 17q38 14 75.5 21.5t79.5 7.5
q37 0 67.5 -12.5t51.5 -33.5q31 22 67.5 34t74.5 12q35 0 66 -13.5t54.5 -37t37 -54.5t13.5 -67v-315q0 -14 -10 -24t-24 -10t-24 10t-10 24v320z" />
    <glyph glyph-name="n" unicode="n" horiz-adv-x="500" 
d="M367 333q0 54 -30 84.5t-84 30.5q-59 0 -115 -17v-407q0 -14 -10 -24t-24 -10t-24 10t-10 24v418q0 15 9 27t23 17q69 25 151 25q41 0 74.5 -13.5t57.5 -37.5t37 -57.5t13 -74.5v-304q0 -14 -10 -24t-24 -10t-24 10t-10 24v309z" />
    <glyph glyph-name="o" unicode="o" horiz-adv-x="484" 
d="M434 183q0 -43 -14 -78.5t-39 -61t-60.5 -39.5t-78.5 -14t-78.5 14t-60.5 39.5t-39 61t-14 78.5v135q0 43 14 78.5t39 61t60.5 39.5t78.5 14t78.5 -14t60.5 -39.5t39 -61t14 -78.5v-135zM366 323q0 59 -32.5 92t-91.5 33t-91.5 -33t-32.5 -92v-145q0 -59 32.5 -92
t91.5 -33t91.5 33t32.5 92v145z" />
    <glyph glyph-name="p" unicode="p" horiz-adv-x="490" 
d="M70 442q0 15 9 27t23 17q71 25 151 25q41 0 74.5 -13.5t57.5 -37.5t37 -57.5t13 -74.5v-155q0 -41 -13 -74.5t-37 -57.5t-57.5 -37.5t-74.5 -13.5q-31 0 -60 8t-55 22v-209q0 -14 -10 -24t-24 -10t-24 10t-10 24v631zM367 333q0 54 -30 84.5t-84 30.5q-58 0 -115 -17
v-338q23 -22 53 -31t62 -9q54 0 84 30.5t30 84.5v165z" />
    <glyph glyph-name="q" unicode="q" horiz-adv-x="485" 
d="M347 20q-26 -14 -55 -22t-59 -8q-41 0 -75 13.5t-58 37.5t-37 57.5t-13 74.5v155q0 41 13 74.5t37 57.5t58 37.5t75 13.5q79 0 150 -25q14 -5 23 -17t9 -27v-631q0 -14 -10 -24t-24 -10t-24 10t-10 24v209zM347 431q-57 17 -114 17q-54 0 -84.5 -30.5t-30.5 -84.5v-165
q0 -54 30.5 -84.5t84.5 -30.5q32 0 61.5 9t52.5 31v338z" />
    <glyph glyph-name="r" unicode="r" horiz-adv-x="315" 
d="M70 373q0 31 10.5 56.5t28 43.5t41.5 28t51 10q34 0 72 -8q12 -2 19.5 -12t7.5 -21q0 -14 -10 -23t-24 -9q-4 0 -8 1t-9 2q-12 2 -23.5 3.5t-24.5 1.5q-26 0 -44.5 -18.5t-18.5 -51.5v-352q0 -14 -10 -24t-24 -10t-24 10t-10 24v349z" />
    <glyph glyph-name="s" unicode="s" horiz-adv-x="403" 
d="M132 248q-35 15 -61 44.5t-26 82.5q0 31 13 56t35 43t51.5 27.5t62.5 9.5q37 0 66.5 -7t55.5 -18q21 -10 21 -32q0 -14 -10 -22.5t-24 -8.5q-6 0 -13 3q-47 22 -104 22q-15 0 -30 -4t-27.5 -12t-20.5 -21.5t-8 -32.5q0 -30 16.5 -46t33.5 -23l94 -38q45 -18 72.5 -52.5
t27.5 -80.5q0 -31 -12 -58t-33.5 -47t-51 -31.5t-63.5 -11.5q-39 0 -71 7.5t-61 21.5q-20 9 -20 31q0 14 9.5 23t24.5 9q4 0 7 -1t7 -3q24 -11 50.5 -18t56.5 -7q35 0 62 19.5t27 54.5q0 32 -15.5 50t-47.5 32z" />
    <glyph glyph-name="t" unicode="t" horiz-adv-x="316" 
d="M70 677q0 14 10 24t24 10t24 -10t10 -24v-176h115q14 0 23.5 -9.5t9.5 -23.5t-9.5 -23t-23.5 -9h-115v-311q0 -32 18.5 -50.5t44.5 -18.5q11 0 28 2t25 2q11 0 21.5 -8.5t10.5 -23.5q0 -12 -7.5 -21.5t-20.5 -11.5q-14 -2 -28.5 -3.5t-28.5 -1.5q-27 0 -51 10t-41.5 28
t-28 43.5t-10.5 55.5v550z" />
    <glyph glyph-name="u" unicode="u" horiz-adv-x="500" 
d="M362 477q0 14 10 24t24 10t24 -10t10 -24v-418q0 -15 -8.5 -27t-22.5 -17q-36 -12 -74 -18.5t-77 -6.5q-85 0 -134 49.5t-49 133.5v304q0 14 10 24t24 10t24 -10t10 -24v-309q0 -54 30.5 -84.5t84.5 -30.5q58 0 114 17v407z" />
    <glyph glyph-name="v" unicode="v" horiz-adv-x="405" 
d="M17 466q-1 3 -1.5 5.5t-0.5 5.5q0 14 9.5 24t24.5 10q11 0 19.5 -6t12.5 -17l126 -381l117 380q3 11 11.5 17.5t19.5 6.5q14 0 24.5 -9t10.5 -25q0 -3 -0.5 -5.5t-1.5 -5.5l-142 -447q-4 -13 -14.5 -21t-24.5 -8t-24 8t-14 20z" />
    <glyph glyph-name="w" unicode="w" horiz-adv-x="675" 
d="M338 385l-100 -365q-4 -14 -14.5 -22t-24.5 -8t-24.5 8t-14.5 21l-133 448q-2 6 -2 10q0 12 9 22.5t25 10.5q11 0 20.5 -6.5t12.5 -17.5l106 -372l101 367q4 13 14.5 21.5t24.5 8.5t24.5 -8.5t14.5 -21.5l100 -367l106 372q3 11 12.5 17.5t20.5 6.5q13 0 23.5 -9.5
t10.5 -23.5q0 -4 -2 -10l-133 -448q-4 -13 -14 -21t-24 -8t-24.5 8t-14.5 22z" />
    <glyph glyph-name="x" unicode="x" horiz-adv-x="415" 
d="M208 193l-121 -187q-10 -16 -28 -16q-14 0 -24 9.5t-10 25.5q0 10 5 18l139 210l-135 205q-6 9 -6 19q0 13 10 23.5t24 10.5q18 0 29 -16l117 -182l117 182q10 16 28 16q13 0 23.5 -9.5t10.5 -24.5q0 -10 -6 -19l-135 -205l139 -210q5 -8 5 -18q0 -14 -9 -24.5t-25 -10.5
q-18 0 -28 16z" />
    <glyph glyph-name="y" unicode="y" horiz-adv-x="424" 
d="M190 0l-167 465q-1 3 -1.5 5.5t-0.5 5.5q0 13 9 23.5t25 10.5q11 0 19.5 -5.5t12.5 -16.5l137 -391l118 390q3 11 12 17.5t20 6.5q14 0 24.5 -9.5t10.5 -24.5q0 -3 -0.5 -5.5t-1.5 -5.5l-178 -564q-18 -57 -64 -91t-112 -34q-14 0 -23.5 9t-9.5 24q0 13 9.5 22t23.5 10
q89 5 113 80z" />
    <glyph glyph-name="z" unicode="z" horiz-adv-x="425" 
d="M70 0q-17 0 -28.5 11.5t-11.5 28.5q0 14 7 24l268 372h-238q-14 0 -24 9t-10 23t10 23.5t24 9.5h284q17 0 29 -12t12 -29q0 -13 -7 -23l-269 -372h245q14 0 24 -9t10 -23t-10 -23.5t-24 -9.5h-291z" />
    <glyph glyph-name="ordfeminine" unicode="&#xaa;" horiz-adv-x="360" 
d="M288 447q0 -11 -7 -21t-18 -14q-21 -8 -43 -11t-45 -3q-38 0 -60.5 11t-34 26.5t-15 32t-3.5 27.5t3.5 27.5t15 31.5t34 26t60.5 11h53v24q0 16 -13.5 27.5t-27.5 11.5q-19 0 -33 -2.5t-31 -13.5q-7 -4 -15 -4q-11 0 -20 7.5t-9 20.5q0 7 3.5 13.5t11.5 11.5
q24 13 45.5 18.5t50.5 5.5q15 0 31.5 -6t29.5 -16q17 -14 27 -33t10 -41v-168zM228 535h-53q-20 0 -30.5 -4.5t-16 -10.5t-6.5 -13t-1 -12t1 -12t6.5 -13t16 -10.5t30.5 -4.5q27 0 53 6v74z" />
    <glyph glyph-name="ordmasculine" unicode="&#xba;" horiz-adv-x="360" 
d="M298 516q0 -53 -32 -85.5t-86 -32.5t-86 32.5t-32 85.5v76q0 54 32 86.5t86 32.5t86 -32.5t32 -86.5v-76zM239 596q0 59 -59 59q-28 0 -43.5 -15t-15.5 -44v-84q0 -28 15.5 -43t43.5 -15q59 0 59 58v84z" />
    <glyph glyph-name="onehalf" unicode="&#xbd;" horiz-adv-x="850" 
d="M134 634l-51 -28q-7 -4 -14 -4q-13 0 -21 8t-8 19q0 8 3.5 15t10.5 11l90 52q8 4 16 4q14 0 23.5 -9.5t9.5 -23.5v-362q0 -13 -8.5 -21.5t-20.5 -8.5q-13 0 -21.5 8.5t-8.5 21.5v318zM574 0q-14 0 -24 9.5t-10 23.5q0 11 7 20l137 175q10 13 19 31.5t9 38.5
q0 28 -15 44.5t-42 16.5q-18 0 -34 -3t-34 -12q-8 -4 -14 -4q-14 0 -21 9t-7 18q0 17 17 27q26 14 48 17.5t45 3.5q53 0 85 -32t32 -85q0 -33 -13 -60t-26 -44l-106 -138h118q13 0 21.5 -7.5t8.5 -20.5q0 -12 -8.5 -20t-21.5 -8h-171zM587 694q10 13 23 13q11 0 20 -8t9 -20
q0 -10 -7 -19l-452 -653q-10 -13 -24 -13q-11 0 -19.5 8t-8.5 21q0 5 2.5 9.5t4.5 8.5z" />
    <glyph glyph-name="Agrave" unicode="&#xc0;" horiz-adv-x="550" 
d="M408 194h-266l-61 -181q-4 -11 -12.5 -17t-19.5 -6q-13 0 -23.5 10t-10.5 24q0 3 0.5 5.5t1.5 5.5l220 650q4 11 14.5 18.5t23.5 7.5t23.5 -7.5t14.5 -18.5l220 -650q1 -3 1.5 -5.5t0.5 -5.5q0 -13 -10 -23.5t-24 -10.5q-11 0 -19.5 6t-12.5 17zM275 594l-110 -333h220z
M190 837q-16 10 -16 28q0 12 8.5 22.5t22.5 10.5q10 0 18 -5l107 -65q15 -11 15 -29q0 -13 -9.5 -22t-23.5 -9q-10 0 -19 6z" />
    <glyph glyph-name="Edieresis" unicode="&#xcb;" horiz-adv-x="488" 
d="M122 0q-20 0 -33.5 13.5t-13.5 33.5v607q0 20 13.5 33.5t33.5 13.5h291q14 0 24 -10t10 -24t-10 -23.5t-24 -9.5h-268v-238h255q14 0 24 -9.5t10 -23.5t-9.5 -24t-24.5 -10h-255v-262h274q14 0 24 -9.5t10 -23.5t-10 -24t-24 -10h-297zM229 842q0 -19 -13 -32t-32 -13
t-32 13t-13 32t13 32t32 13t32 -13t13 -32zM385 842q0 -19 -13.5 -32t-32.5 -13t-32 13t-13 32t13 32t32 13t32.5 -13t13.5 -32z" />
    <glyph glyph-name="Icircumflex" unicode="&#xce;" horiz-adv-x="220" 
d="M76 676q0 14 10.5 24.5t24.5 10.5t24.5 -10.5t10.5 -24.5v-651q0 -14 -10.5 -24.5t-24.5 -10.5t-24.5 10.5t-10.5 24.5v651zM110 828l-80 -55q-9 -6 -19 -6q-13 0 -22.5 9t-9.5 23q0 17 15 28l89 62q12 9 27 9t27 -9l89 -62q15 -11 15 -28q0 -13 -9.5 -22.5t-23.5 -9.5
q-10 0 -19 6z" />
    <glyph glyph-name="germandbls" unicode="&#xdf;" horiz-adv-x="536" 
d="M305 252q-12 7 -25.5 16t-24.5 22t-18.5 30t-7.5 40q0 25 7.5 44t18.5 33t24.5 24.5t25.5 18.5q25 18 37.5 33.5t12.5 43.5q0 24 -10 41t-26 28.5t-36 16.5t-39 5q-53 0 -82 -29.5t-29 -81.5v-513q0 -14 -10 -24t-24 -10t-24 10t-10 24v508q0 40 13 73t36.5 56.5
t56.5 36.5t73 13t73 -11.5t56.5 -31.5t36.5 -48.5t13 -62.5q0 -28 -7.5 -48t-19 -35t-25.5 -26t-27 -20q-23 -17 -35 -30.5t-12 -37.5q0 -14 8 -25.5t32 -25.5l86 -50q35 -20 56.5 -52t21.5 -73q0 -30 -11.5 -56t-31 -45.5t-46 -31t-56.5 -11.5q-31 0 -60 7t-60 23
q-18 9 -18 30q0 14 9.5 22.5t23.5 8.5q6 0 15 -4q25 -11 44.5 -17.5t45.5 -6.5q16 0 30 6.5t24.5 18t16.5 26t6 30.5q0 22 -11.5 39.5t-30.5 28.5z" />
    <glyph glyph-name="agrave" unicode="&#xe0;" horiz-adv-x="470" 
d="M405 59q0 -15 -9 -27t-23 -17q-36 -12 -73.5 -18.5t-76.5 -6.5q-91 0 -139 43q-44 39 -44 111q0 70 44 111q23 21 58 30.5t81 9.5h114v63q0 45 -29 67.5t-77 22.5q-30 0 -58 -8.5t-57 -25.5q-8 -5 -16 -5q-14 0 -24 8.5t-10 23.5q0 19 17 30q35 22 73 31t75 9
q35 0 66.5 -9.5t55.5 -28.5t38 -47.5t14 -66.5v-300zM337 232h-114q-38 0 -61 -8t-35 -21t-15.5 -28.5t-3.5 -30.5t3.5 -31t15.5 -29.5t35 -22t61 -8.5q58 0 114 17v162zM151 650q-16 10 -16 28q0 12 8.5 22.5t22.5 10.5q10 0 18 -5l107 -65q15 -11 15 -29q0 -13 -9.5 -22
t-23.5 -9q-10 0 -19 6z" />
    <glyph glyph-name="aacute" unicode="&#xe1;" horiz-adv-x="470" 
d="M405 59q0 -15 -9 -27t-23 -17q-36 -12 -73.5 -18.5t-76.5 -6.5q-91 0 -139 43q-44 39 -44 111q0 70 44 111q23 21 58 30.5t81 9.5h114v63q0 45 -29 67.5t-77 22.5q-30 0 -58 -8.5t-57 -25.5q-8 -5 -16 -5q-14 0 -24 8.5t-10 23.5q0 19 17 30q35 22 73 31t75 9
q35 0 66.5 -9.5t55.5 -28.5t38 -47.5t14 -66.5v-300zM337 232h-114q-38 0 -61 -8t-35 -21t-15.5 -28.5t-3.5 -30.5t3.5 -31t15.5 -29.5t35 -22t61 -8.5q58 0 114 17v162zM217 587q-9 -6 -19 -6q-14 0 -23.5 9t-9.5 22q0 18 15 29l107 65q7 5 18 5q14 0 22.5 -10.5t8.5 -22.5
q0 -18 -16 -28z" />
    <glyph glyph-name="adieresis" unicode="&#xe4;" horiz-adv-x="470" 
d="M405 59q0 -15 -9 -27t-23 -17q-36 -12 -73.5 -18.5t-76.5 -6.5q-91 0 -139 43q-44 39 -44 111q0 70 44 111q23 21 58 30.5t81 9.5h114v63q0 45 -29 67.5t-77 22.5q-30 0 -58 -8.5t-57 -25.5q-8 -5 -16 -5q-14 0 -24 8.5t-10 23.5q0 19 17 30q35 22 73 31t75 9
q35 0 66.5 -9.5t55.5 -28.5t38 -47.5t14 -66.5v-300zM337 232h-114q-38 0 -61 -8t-35 -21t-15.5 -28.5t-3.5 -30.5t3.5 -31t15.5 -29.5t35 -22t61 -8.5q58 0 114 17v162zM157 620q-19 0 -32 13.5t-13 32.5t13 32t32 13t32 -13t13 -32t-13 -32.5t-32 -13.5zM312 620
q-19 0 -32 13.5t-13 32.5t13 32t32 13t32 -13t13 -32t-13 -32.5t-32 -13.5z" />
    <glyph glyph-name="eacute" unicode="&#xe9;" horiz-adv-x="465" 
d="M118 229v-56q0 -54 30.5 -87t84.5 -33q30 0 58.5 8t55.5 20q7 3 14 3q14 0 24 -9t10 -23q0 -21 -19 -30q-34 -17 -69.5 -24.5t-73.5 -7.5q-41 0 -75 13.5t-58 37.5t-37 57.5t-13 74.5v155q0 41 13 74.5t37 57.5t58 37.5t75 13.5t74.5 -13.5t57.5 -37.5t37 -57.5t13 -74.5
v-52q0 -20 -13.5 -33.5t-33.5 -13.5h-250zM347 333q0 54 -30 84.5t-84 30.5t-84.5 -30.5t-30.5 -84.5v-41h229v41zM214 587q-9 -6 -19 -6q-14 0 -23.5 9t-9.5 22q0 18 15 29l107 65q7 5 18 5q14 0 22.5 -10.5t8.5 -22.5q0 -18 -16 -28z" />
    <glyph glyph-name="iacute" unicode="&#xed;" horiz-adv-x="230" 
d="M81 477q0 14 10 24t24 10t24 -10t10 -24v-453q0 -14 -10 -24t-24 -10t-24 10t-10 24v453zM97 587q-9 -6 -19 -6q-14 0 -23.5 9t-9.5 22q0 18 15 29l107 65q7 5 18 5q14 0 22.5 -10.5t8.5 -22.5q0 -18 -16 -28z" />
    <glyph glyph-name="otilde" unicode="&#xf5;" horiz-adv-x="484" 
d="M434 183q0 -43 -14 -78.5t-39 -61t-60.5 -39.5t-78.5 -14t-78.5 14t-60.5 39.5t-39 61t-14 78.5v135q0 43 14 78.5t39 61t60.5 39.5t78.5 14t78.5 -14t60.5 -39.5t39 -61t14 -78.5v-135zM366 323q0 59 -32.5 92t-91.5 33t-91.5 -33t-32.5 -92v-145q0 -59 32.5 -92
t91.5 -33t91.5 33t32.5 92v145zM377 659q-16 -21 -39.5 -32t-49.5 -11q-34 0 -67 22q-6 4 -12 6.5t-14 2.5q-23 0 -38 -18q-12 -13 -26 -13q-13 0 -22.5 9t-9.5 23q0 10 7 21q16 21 39.5 31.5t49.5 10.5q18 0 34.5 -6t32.5 -16q14 -9 26 -9q11 0 21 5t17 13q12 13 26 13
q13 0 22.5 -9t9.5 -23q0 -12 -7 -20z" />
    <glyph glyph-name="odieresis" unicode="&#xf6;" horiz-adv-x="484" 
d="M434 183q0 -43 -14 -78.5t-39 -61t-60.5 -39.5t-78.5 -14t-78.5 14t-60.5 39.5t-39 61t-14 78.5v135q0 43 14 78.5t39 61t60.5 39.5t78.5 14t78.5 -14t60.5 -39.5t39 -61t14 -78.5v-135zM366 323q0 59 -32.5 92t-91.5 33t-91.5 -33t-32.5 -92v-145q0 -59 32.5 -92
t91.5 -33t91.5 33t32.5 92v145zM164 620q-19 0 -32 13.5t-13 32.5t13 32t32 13t32 -13t13 -32t-13 -32.5t-32 -13.5zM319 620q-19 0 -32 13.5t-13 32.5t13 32t32 13t32 -13t13 -32t-13 -32.5t-32 -13.5z" />
    <glyph glyph-name="ucircumflex" unicode="&#xfb;" horiz-adv-x="500" 
d="M362 477q0 14 10 24t24 10t24 -10t10 -24v-418q0 -15 -8.5 -27t-22.5 -17q-36 -12 -74 -18.5t-77 -6.5q-85 0 -134 49.5t-49 133.5v304q0 14 10 24t24 10t24 -10t10 -24v-309q0 -54 30.5 -84.5t84.5 -30.5q58 0 114 17v407zM250 641l-80 -55q-9 -6 -19 -6q-13 0 -22.5 9
t-9.5 23q0 17 15 28l89 62q12 9 27 9t27 -9l89 -62q15 -11 15 -28q0 -13 -9.5 -22.5t-23.5 -9.5q-10 0 -19 6z" />
    <glyph glyph-name="ydieresis" unicode="&#xff;" horiz-adv-x="424" 
d="M190 0l-167 465q-1 3 -1.5 5.5t-0.5 5.5q0 13 9 23.5t25 10.5q11 0 19.5 -5.5t12.5 -16.5l137 -391l118 390q3 11 12 17.5t20 6.5q14 0 24.5 -9.5t10.5 -24.5q0 -3 -0.5 -5.5t-1.5 -5.5l-178 -564q-18 -57 -64 -91t-112 -34q-14 0 -23.5 9t-9.5 24q0 13 9.5 22t23.5 10
q89 5 113 80zM134 620q-19 0 -32 13.5t-13 32.5t13 32t32 13t32 -13t13 -32t-13 -32.5t-32 -13.5zM289 620q-19 0 -32 13.5t-13 32.5t13 32t32 13t32 -13t13 -32t-13 -32.5t-32 -13.5z" />
    <glyph glyph-name="lslash" unicode="&#x142;" horiz-adv-x="302" 
d="M117 302l-44 -30q-9 -6 -19 -6q-13 0 -23.5 8.5t-10.5 23.5q0 19 15 28l82 55v296q0 14 10 24t24 10t24 -10t10 -24v-251l44 29q10 7 20 7q14 0 23.5 -9.5t9.5 -23.5q0 -17 -15 -27l-82 -55v-323q0 -14 -10 -24t-24 -10t-24 10t-10 24v278z" />
    <glyph glyph-name="OE" unicode="&#x152;" horiz-adv-x="856" 
d="M490 0q-20 0 -33.5 13.5t-13.5 36.5q-62 -60 -160 -60q-102 0 -165 63t-63 165v265q0 102 63 165t165 63q98 0 160 -59q0 22 13.5 35.5t33.5 13.5h290q14 0 24 -10t10 -24t-10 -23.5t-24 -9.5h-268v-238h255q14 0 24 -10t10 -24t-10 -23.5t-24 -9.5h-255v-262h275
q14 0 24 -9.5t10 -23.5t-10 -24t-24 -10h-297zM442 486q0 74 -43 117t-116 43q-72 0 -115 -43t-43 -117v-271q0 -74 43 -117t115 -43q73 0 116 43t43 117v271z" />
    <glyph glyph-name="Scaron" unicode="&#x160;" horiz-adv-x="474" 
d="M155 363q-28 13 -50 28.5t-37.5 35.5t-24 46.5t-8.5 62.5q0 41 17 73.5t45.5 55t66.5 34.5t80 12q51 0 89 -9.5t73 -23.5q11 -4 16.5 -12.5t5.5 -19.5q0 -13 -10 -23t-24 -10q-8 0 -14 3q-30 13 -62.5 21.5t-73.5 8.5q-24 0 -48.5 -5.5t-45 -19t-33 -35t-12.5 -52.5
q0 -38 20 -63.5t60 -45.5l109 -53q28 -14 54.5 -30.5t46.5 -38.5t32 -52t12 -70q0 -47 -17.5 -82.5t-46.5 -59.5t-68 -36.5t-82 -12.5q-45 0 -87.5 10.5t-82.5 27.5q-9 4 -14.5 12.5t-5.5 18.5q0 14 10 23.5t24 9.5q8 0 14 -3q34 -16 69 -25t73 -9q73 0 108.5 33t35.5 93
q0 24 -9 43.5t-23.5 35.5t-33.5 28t-39 22zM264 776q-12 -9 -27 -9t-27 9l-89 62q-15 10 -15 28q0 14 9.5 23t22.5 9q10 0 19 -6l80 -55l79 55q9 6 19 6q14 0 23.5 -9.5t9.5 -22.5q0 -18 -15 -28z" />
    <glyph glyph-name="scaron" unicode="&#x161;" horiz-adv-x="403" 
d="M132 248q-35 15 -61 44.5t-26 82.5q0 31 13 56t35 43t51.5 27.5t62.5 9.5q37 0 66.5 -7t55.5 -18q21 -10 21 -32q0 -14 -10 -22.5t-24 -8.5q-6 0 -13 3q-47 22 -104 22q-15 0 -30 -4t-27.5 -12t-20.5 -21.5t-8 -32.5q0 -30 16.5 -46t33.5 -23l94 -38q45 -18 72.5 -52.5
t27.5 -80.5q0 -31 -12 -58t-33.5 -47t-51 -31.5t-63.5 -11.5q-39 0 -71 7.5t-61 21.5q-20 9 -20 31q0 14 9.5 23t24.5 9q4 0 7 -1t7 -3q24 -11 50.5 -18t56.5 -7q35 0 62 19.5t27 54.5q0 32 -15.5 50t-47.5 32zM228 589q-12 -9 -27 -9t-27 9l-89 62q-15 10 -15 28
q0 14 9.5 23t22.5 9q10 0 19 -6l80 -55l79 55q9 6 19 6q14 0 23.5 -9.5t9.5 -22.5q0 -18 -15 -28z" />
    <glyph glyph-name="Ydieresis" unicode="&#x178;" horiz-adv-x="488" 
d="M210 312l-196 348q-4 7 -4 17q0 13 9.5 23.5t24.5 10.5q20 0 29 -17l171 -310l171 310q5 8 13 12.5t17 4.5q13 0 23 -10t10 -24q0 -9 -4 -17l-196 -348v-288q0 -14 -10 -24t-24 -10t-24 10t-10 24v288zM211 842q0 -19 -13 -32t-32 -13t-32 13t-13 32t13 32t32 13t32 -13
t13 -32zM367 842q0 -19 -13.5 -32t-32.5 -13t-32 13t-13 32t13 32t32 13t32.5 -13t13.5 -32z" />
    <glyph glyph-name="florin" unicode="&#x192;" 
d="M289 600q4 23 15.5 43t29 34.5t38.5 22.5t45 8q15 0 29.5 -1.5t28.5 -3.5q12 -2 20 -11t8 -21q0 -17 -10.5 -25t-23.5 -8t-22.5 3t-29.5 3q-23 0 -40.5 -17t-21.5 -40l-33 -190h108q14 0 24 -9.5t10 -23.5t-10 -23t-24 -9h-120l-79 -447q-4 -24 -15.5 -43.5t-29 -34
t-38.5 -22.5t-45 -8q-15 0 -29.5 1.5t-28.5 3.5q-12 2 -20 10t-8 22q0 17 10.5 25t23.5 8q11 0 20.5 -3t31.5 -3q23 0 40.5 16.5t21.5 39.5z" />
    <glyph glyph-name="circumflex" unicode="&#x2c6;" horiz-adv-x="400" 
d="M200 641l-80 -55q-9 -6 -19 -6q-13 0 -22.5 9t-9.5 23q0 17 15 28l89 62q12 9 27 9t27 -9l89 -62q15 -11 15 -28q0 -13 -9.5 -22.5t-23.5 -9.5q-10 0 -19 6z" />
    <glyph glyph-name="caron" unicode="&#x2c7;" horiz-adv-x="400" 
d="M227 589q-12 -9 -27 -9t-27 9l-89 62q-15 10 -15 28q0 14 9.5 23t22.5 9q10 0 19 -6l80 -55l79 55q9 6 19 6q14 0 23.5 -9.5t9.5 -22.5q0 -18 -15 -28z" />
    <glyph glyph-name="breve" unicode="&#x2d8;" horiz-adv-x="400" 
d="M311 657q-20 -26 -49.5 -41t-61.5 -15q-33 0 -62 15t-49 41q-7 8 -7 20q0 13 10 23.5t24 10.5q16 0 27 -14q22 -28 57 -28t57 28q11 14 27 14q13 0 23.5 -10t10.5 -24q0 -10 -7 -20z" />
    <glyph glyph-name="ogonek" unicode="&#x2db;" horiz-adv-x="294" 
d="M208 0q-11 -10 -25 -24.5t-26.5 -31.5t-21 -35t-8.5 -34q0 -36 36 -36q10 0 16.5 1.5t11 3.5t8.5 3.5t9 1.5q10 0 18 -8t8 -19q0 -14 -9 -23t-22.5 -14t-28 -6.5t-26.5 -1.5q-38 0 -63 19t-25 63q0 42 21 77.5t53 63.5h74z" />
    <glyph glyph-name="tilde" unicode="&#x2dc;" horiz-adv-x="400" 
d="M336 659q-16 -21 -39.5 -32t-49.5 -11q-34 0 -67 22q-6 4 -12 6.5t-14 2.5q-23 0 -38 -18q-12 -13 -26 -13q-13 0 -22.5 9t-9.5 23q0 10 7 21q16 21 39.5 31.5t49.5 10.5q18 0 34.5 -6t32.5 -16q14 -9 26 -9q11 0 21 5t17 13q12 13 26 13q13 0 22.5 -9t9.5 -23
q0 -12 -7 -20z" />
    <glyph glyph-name="hungarumlaut" unicode="&#x2dd;" horiz-adv-x="400" 
d="M112 590q-10 -10 -24 -10t-23 9.5t-9 22.5q0 14 10 24l67 65q10 10 23 10q14 0 23.5 -9.5t9.5 -22.5q0 -14 -10 -24zM267 590q-10 -10 -24 -10t-23 9.5t-9 22.5q0 14 10 24l67 65q10 10 23 10q14 0 23.5 -9.5t9.5 -22.5q0 -14 -10 -24z" />
    <glyph glyph-name="grave" unicode="`" horiz-adv-x="1" 
d="M-326 650q-16 10 -16 28q0 12 8.5 22.5t22.5 10.5q10 0 18 -5l107 -65q15 -11 15 -29q0 -13 -9.5 -22t-23.5 -9q-10 0 -19 6z" />
    <glyph glyph-name="acute" unicode="&#xb4;" horiz-adv-x="1" 
d="M-260 587q-9 -6 -19 -6q-14 0 -23.5 9t-9.5 22q0 18 15 29l107 65q7 5 18 5q14 0 22.5 -10.5t8.5 -22.5q0 -18 -16 -28z" />
    <glyph glyph-name="oe" unicode="&#x153;" horiz-adv-x="782" 
d="M435 229v-56q0 -54 30.5 -87t84.5 -33q30 0 58.5 8t55.5 20q7 3 14 3q14 0 24 -9t10 -23q0 -21 -19 -30q-34 -17 -69.5 -24.5t-73.5 -7.5q-51 0 -90 20t-62 58q-26 -38 -65.5 -58t-90.5 -20q-43 0 -78.5 14t-60.5 39.5t-39 61t-14 78.5v135q0 43 14 78.5t39 61t60.5 39.5
t78.5 14q51 0 90.5 -20.5t65.5 -58.5q23 38 62 58.5t90 20.5q41 0 74.5 -13.5t57.5 -37.5t37 -57.5t13 -74.5v-52q0 -20 -13.5 -33.5t-33.5 -13.5h-250zM366 323q0 59 -32.5 92t-91.5 33t-91.5 -33t-32.5 -92v-145q0 -59 32.5 -92t91.5 -33t91.5 33t32.5 92v145zM664 333
q0 54 -30 84.5t-84 30.5t-84.5 -30.5t-30.5 -84.5v-39h229v39z" />
    <glyph glyph-name="asciicircum" unicode="^" horiz-adv-x="1" 
d="M-230 673l-86 -59q-6 -4 -11 -4q-9 0 -14 5t-5 13q0 10 8 15l90 62q7 6 18 6t19 -6l89 -62q8 -5 8 -15q0 -8 -5 -13t-13 -5q-6 0 -11 4z" />
    <glyph glyph-name="dieresis" unicode="&#xa8;" horiz-adv-x="1" 
d="M-320 620q-19 0 -32 13.5t-13 32.5t13 32t32 13t32 -13t13 -32t-13 -32.5t-32 -13.5zM-165 620q-19 0 -32 13.5t-13 32.5t13 32t32 13t32 -13t13 -32t-13 -32.5t-32 -13.5z" />
    <glyph glyph-name="ring" unicode="&#x2da;" horiz-adv-x="1" 
d="M-138 677q0 -21 -8 -40t-22.5 -33t-33.5 -22t-40 -8t-40 8t-33 22t-22 33t-8 40t8 40t22 33t33 22t40 8t40 -8t33.5 -22t22.5 -33t8 -40zM-242 624q22 0 37 15.5t15 37.5q0 21 -15 37t-37 16q-21 0 -36 -16t-15 -37q0 -22 15 -37.5t36 -15.5z" />
    <glyph glyph-name="Delta" unicode="&#x2206;" 
d="M56 0q-20 0 -33.5 13.5t-13.5 32.5v7.5t2 8.5l212 623q5 11 15 18.5t23 7.5q12 0 23 -7.5t15 -18.5l211 -623q2 -5 2 -8.5v-7.5q0 -19 -13.5 -32.5t-32.5 -13.5h-410zM261 593l-176 -526h351z" />
    <glyph glyph-name="Omega" unicode="&#x2126;" 
d="M343 0q-19 0 -32.5 13.5t-13.5 33.5v76q0 14 7.5 26.5t20.5 17.5q40 17 58.5 50.5t18.5 81.5v203q0 68 -38 106t-103 38q-66 0 -104 -38t-38 -106v-203q0 -48 19 -81.5t58 -50.5q13 -6 21 -18t8 -26v-76q0 -20 -13.5 -33.5t-33.5 -13.5h-95q-14 0 -24 10t-10 24t10 23.5
t24 9.5h76v45q-53 26 -81.5 75t-28.5 114v198q0 48 15.5 87t43 66.5t66.5 43t87 15.5q47 0 86 -15.5t66.5 -43t43 -66.5t15.5 -87v-198q0 -65 -28.5 -114t-81.5 -75v-45h76q14 0 24 -9.5t10 -23.5t-10 -24t-24 -10h-95z" />
    <glyph glyph-name="pi" unicode="&#x3c0;" 
d="M316 436h-126v-412q0 -14 -10 -24t-24 -10t-24 10t-10 24v412h-76q-14 0 -24 9t-10 23t10 23.5t24 9.5h420q14 0 24 -9.5t10 -23.5t-10 -23t-24 -9h-82v-318q0 -26 18 -44.5t44 -18.5q14 0 24 -9t10 -23t-9.5 -23.5t-23.5 -9.5q-27 0 -51 10.5t-42 28t-28 41.5t-10 51
v315z" />
    <glyph glyph-name="quoteleft" unicode="&#x2018;" horiz-adv-x="216" 
d="M176 678q0 -4 -2 -12l-48 -142q-4 -11 -12.5 -17t-19.5 -6q-14 0 -24 10.5t-10 23.5q0 3 0.5 5.5t1.5 5.5l48 142q4 11 12.5 17t19.5 6q14 0 24 -10t10 -23z" />
    <glyph glyph-name="quoteright" unicode="&#x2019;" horiz-adv-x="216" 
d="M90 688q4 11 12.5 17t19.5 6q14 0 24 -10t10 -23q0 -4 -2 -12l-48 -142q-4 -11 -12.5 -17t-19.5 -6q-14 0 -24 10.5t-10 23.5q0 3 0.5 5.5t1.5 5.5z" />
    <glyph glyph-name="quotedblleft" unicode="&#x201c;" horiz-adv-x="371" 
d="M176 678q0 -4 -2 -12l-48 -142q-4 -11 -12.5 -17t-19.5 -6q-14 0 -24 10.5t-10 23.5q0 3 0.5 5.5t1.5 5.5l48 142q4 11 12.5 17t19.5 6q14 0 24 -10t10 -23zM331 678q0 -4 -2 -12l-48 -142q-4 -11 -12.5 -17t-19.5 -6q-14 0 -24 10.5t-10 23.5q0 3 0.5 5.5t1.5 5.5
l48 142q4 11 12.5 17t19.5 6q14 0 24 -10t10 -23z" />
    <glyph glyph-name="quotedblright" unicode="&#x201d;" horiz-adv-x="371" 
d="M90 688q4 11 12.5 17t19.5 6q14 0 24 -10t10 -23q0 -4 -2 -12l-48 -142q-4 -11 -12.5 -17t-19.5 -6q-14 0 -24 10.5t-10 23.5q0 3 0.5 5.5t1.5 5.5zM245 688q4 11 12.5 17t19.5 6q14 0 24 -10t10 -23q0 -4 -2 -12l-48 -142q-4 -11 -12.5 -17t-19.5 -6q-14 0 -24 10.5
t-10 23.5q0 3 0.5 5.5t1.5 5.5z" />
    <glyph glyph-name="quotesinglbase" unicode="&#x201a;" horiz-adv-x="228" 
d="M107 64q4 11 12.5 17t19.5 6q13 0 24 -10t11 -24q0 -3 -0.5 -5.5t-1.5 -5.5l-49 -142q-4 -11 -12.5 -17t-19.5 -6q-13 0 -23.5 10t-10.5 24q0 3 0.5 5.5t1.5 5.5z" />
    <glyph glyph-name="dagger" unicode="&#x2020;" 
d="M225 434h-159q-14 0 -24 9.5t-10 23.5t10 24t24 10h159v175q0 14 10.5 24.5t24.5 10.5t24.5 -10.5t10.5 -24.5v-175h159q14 0 24 -10t10 -24t-10 -23.5t-24 -9.5h-159v-622q0 -14 -10.5 -24.5t-24.5 -10.5t-24.5 10.5t-10.5 24.5v622z" />
    <glyph glyph-name="daggerdbl" unicode="&#x2021;" 
d="M295 0v-188q0 -14 -10.5 -24.5t-24.5 -10.5t-24.5 10.5t-10.5 24.5v188h-159q-14 0 -24 10t-10 24t10 23.5t24 9.5h159v367h-159q-14 0 -24 9.5t-10 23.5t10 24t24 10h159v175q0 14 10.5 24.5t24.5 10.5t24.5 -10.5t10.5 -24.5v-175h159q14 0 24 -10t10 -24t-10 -23.5
t-24 -9.5h-159v-367h159q14 0 24 -9.5t10 -23.5t-10 -24t-24 -10h-159z" />
    <glyph glyph-name="ellipsis" unicode="&#x2026;" horiz-adv-x="790" 
d="M172 38q0 -20 -14.5 -34t-34.5 -14t-34 14t-14 34t14 34.5t34 14.5t34.5 -14.5t14.5 -34.5zM395 -10q-20 0 -34.5 14t-14.5 34t14.5 34.5t34.5 14.5t34 -14.5t14 -34.5t-14 -34t-34 -14zM715 38q0 -20 -14.5 -34t-34.5 -14t-34 14t-14 34t14 34.5t34 14.5t34.5 -14.5
t14.5 -34.5z" />
    <glyph glyph-name="Euro" unicode="&#x20ac;" 
d="M173 239v-8q0 -40 12 -74.5t35 -57.5q46 -46 126 -46q56 0 108 35q9 6 19 6q13 0 23 -9.5t10 -23.5q0 -18 -15 -27q-35 -21 -71 -32.5t-74 -11.5q-108 0 -174 66q-67 67 -67 183h-56q-14 0 -24 9.5t-10 23.5t10 23t24 9h56v100h-56q-14 0 -24 9t-10 23t10 23.5t24 9.5h56
q0 109 67 176q66 66 174 66q38 0 74 -11.5t71 -32.5q8 -5 11.5 -13.5t3.5 -16.5q0 -11 -9.5 -20.5t-23.5 -9.5q-10 0 -19 6q-26 17 -53 26t-55 9q-80 0 -126 -46q-23 -23 -35 -57.5t-12 -75.5h186q14 0 24 -9.5t10 -23.5t-10 -23t-24 -9h-186v-100h186q14 0 24 -9.5
t10 -23.5t-10 -23t-24 -9h-186z" />
    <glyph glyph-name="trademark" unicode="&#x2122;" horiz-adv-x="819" 
d="M152 645h-83q-13 0 -21 7.5t-8 20.5q0 12 8 20t21 8h226q12 0 20.5 -8t8.5 -20q0 -13 -8.5 -20.5t-20.5 -7.5h-83v-334q0 -12 -9 -20.5t-21 -8.5q-13 0 -21.5 8.5t-8.5 20.5v334zM680 571l-84 -166q-10 -18 -30 -18q-19 0 -29 18l-84 166v-260q0 -12 -8.5 -20.5
t-21.5 -8.5q-12 0 -20.5 8.5t-8.5 20.5v362q0 14 9.5 24t23.5 10q10 0 18 -5t12 -13l109 -217l109 215q10 20 31 20q14 0 23.5 -10t9.5 -24v-362q0 -12 -8.5 -20.5t-21.5 -8.5q-12 0 -20.5 8.5t-8.5 20.5v260z" />
    <glyph glyph-name="arrowleft" unicode="&#x2190;" horiz-adv-x="1310" 
d="M1144 351q0 -14 -10 -24t-24 -10h-829l268 -269q10 -10 10 -24t-10 -24t-24 -10t-24 10l-326 327q-10 10 -10 24t10 24l326 326q10 10 24 10q13 0 23.5 -10t10.5 -24t-10 -24l-268 -269h829q14 0 24 -9.5t10 -23.5z" />
    <glyph glyph-name="arrowup" unicode="&#x2191;" horiz-adv-x="1310" 
d="M352 427q-10 -10 -24 -10t-24 9.5t-10 24.5q0 14 10 24l326 326q10 10 24 10t24 -10l327 -326q10 -10 10 -24t-10 -24t-24 -10t-24 10l-269 270v-831q0 -14 -10 -24t-24 -10t-24 10t-10 24v831z" />
    <glyph glyph-name="arrowright" unicode="&#x2192;" horiz-adv-x="1310" 
d="M165 351q0 14 10 23.5t24 9.5h831l-270 269q-10 10 -10 24t10.5 24t23.5 10q14 0 24 -10l326 -326q10 -10 10 -24t-10 -24l-326 -327q-10 -10 -24 -10t-24 10t-10 24t10 24l270 269h-831q-14 0 -24 10t-10 24z" />
    <glyph glyph-name="uni2197" unicode="&#x2197;" horiz-adv-x="1310" 
d="M896 635h-382q-14 0 -24 9.5t-10 23.5t10 23.5t24 9.5h462q14 0 24 -10t10 -24v-461q0 -14 -10 -24t-24 -10t-24 10t-10 24v379l-585 -585q-10 -10 -24 -10t-24 10.5t-10 23.5q0 14 10 24z" />
    <glyph glyph-name="uni2198" unicode="&#x2198;" horiz-adv-x="1310" 
d="M309 653q-10 10 -10 24q0 13 10 23.5t24 10.5t24 -10l585 -585v379q0 14 10 24t24 10t24 -10t10 -24v-461q0 -14 -10 -24t-24 -10h-462q-14 0 -24 9.5t-10 23.5t10 23.5t24 9.5h382z" />
    <glyph glyph-name="uni2199" unicode="&#x2199;" horiz-adv-x="1310" 
d="M413 66h382q14 0 24 -9.5t10 -23.5t-10 -23.5t-24 -9.5h-462q-14 0 -24 10t-10 24v461q0 14 10 24t24 10t24 -10t10 -24v-379l585 585q10 10 24 10t24 -10.5t10 -23.5q0 -14 -10 -24z" />
    <glyph glyph-name="uni2196" unicode="&#x2196;" horiz-adv-x="1310" 
d="M1000 56q10 -10 10 -24q0 -13 -10 -23.5t-24 -10.5t-24 10l-585 585v-379q0 -14 -10 -24t-24 -10t-24 10t-10 24v461q0 14 10 24t24 10h462q14 0 24 -9.5t10 -23.5t-10 -23.5t-24 -9.5h-382z" />
    <glyph glyph-name="arrowdown" unicode="&#x2193;" horiz-adv-x="1310" 
d="M957 214q10 10 24 10t24 -9.5t10 -24.5q0 -14 -10 -24l-326 -326q-10 -10 -24 -10t-24 10l-327 326q-10 10 -10 24t10 24t24 10t24 -10l269 -270v831q0 14 10 24t24 10t24 -10t10 -24v-831z" />
    <glyph glyph-name="partialdiff" unicode="&#x2202;" 
d="M446 183q0 -43 -14 -78.5t-39 -61t-60.5 -39.5t-78.5 -14t-78.5 14t-60.5 39.5t-39 61t-14 78.5v135q0 43 14 78.5t39 61t60.5 39.5t78.5 14q29 0 58.5 -8t44.5 -19q-20 62 -66 104t-112 58q-12 3 -19.5 11.5t-7.5 20.5q0 14 9.5 23.5t23.5 9.5q5 0 9 -1
q156 -37 217 -182q24 -57 29.5 -113t5.5 -97v-135zM378 323q0 59 -32 91q-34 34 -92 34q-59 0 -91.5 -33t-32.5 -92v-145q0 -59 32.5 -92t91.5 -33t91.5 33t32.5 92v145z" />
    <glyph glyph-name="product" unicode="&#x220f;" horiz-adv-x="616" 
d="M455 634h-295v-822q0 -14 -10.5 -24.5t-24.5 -10.5t-24.5 10.5t-10.5 24.5v855q0 14 10 24t24 10h368q14 0 24 -10t10 -24v-855q0 -14 -11 -24.5t-25 -10.5t-24.5 10.5t-10.5 24.5v822z" />
    <glyph glyph-name="lessequal" unicode="&#x2264;" 
d="M85 0q-14 0 -24 9.5t-10 23.5t10 23t24 9h349q14 0 24 -9t10 -23t-10 -23.5t-24 -9.5h-349zM79 280q-13 5 -20.5 17t-7.5 26t7.5 26t20.5 17l342 142q7 3 13 3q14 0 24 -10.5t10 -23.5q0 -11 -5.5 -19.5t-15.5 -12.5l-304 -122l304 -122q10 -4 15.5 -12.5t5.5 -18.5
q0 -14 -10.5 -24.5t-23.5 -10.5q-6 0 -13 3z" />
    <glyph glyph-name="greaterequal" unicode="&#x2265;" 
d="M85 0q-14 0 -24 9.5t-10 23.5t10 23t24 9h349q14 0 24 -9t10 -23t-10 -23.5t-24 -9.5h-349zM98 138q-8 -3 -13 -3q-13 0 -23.5 10.5t-10.5 24.5q0 10 5.5 18.5t15.5 12.5l304 122l-304 122q-10 4 -15.5 12.5t-5.5 19.5q0 13 10 23.5t24 10.5q5 0 13 -3l342 -142
q13 -5 20.5 -17t7.5 -26t-7.5 -26t-20.5 -17z" />
    <glyph glyph-name="periodcentered" unicode="&#xb7;" 
d="M308 252q0 -20 -14.5 -34.5t-34.5 -14.5t-34 14.5t-14 34.5t14 34t34 14t34.5 -14t14.5 -34z" />
    <glyph glyph-name="lozenge" unicode="&#x25ca;" 
d="M38 327q-6 10 -6 24q0 12 6 23l181 313q6 11 17 17.5t24 6.5q26 0 40 -24l181 -313q7 -12 7 -23q0 -12 -7 -24l-181 -313q-14 -24 -40 -24q-27 0 -41 24zM416 351l-156 276l-157 -276l157 -277z" />
    <glyph glyph-name="one.pnum" 
d="M291 -10q-14 0 -24 10t-10 24v604l-119 -69q-8 -5 -17 -5q-13 0 -22.5 8t-9.5 22q0 9 4.5 17t12.5 13l158 92q9 5 20 5q17 0 29 -12t12 -29v-646q0 -14 -10 -24t-24 -10z" />
    <glyph glyph-name="two.pnum" 
d="M90 0q-17 0 -29 11.5t-12 28.5q0 14 8 25l252 320q18 23 36 58.5t18 76.5q0 58 -32.5 93t-91.5 35q-35 0 -64 -6.5t-66 -24.5q-10 -4 -16 -4q-14 0 -24 7.5t-10 24.5q0 9 5.5 17.5t14.5 12.5q45 23 82 29.5t78 6.5q43 0 79 -14t61 -39t39 -60t14 -78q0 -27 -6 -52.5
t-16 -47.5t-21.5 -40.5t-23.5 -33.5l-221 -281h260q14 0 24.5 -9t10.5 -23t-10.5 -23.5t-24.5 -9.5h-314z" />
    <glyph glyph-name="three.pnum" 
d="M206 331q-15 0 -24.5 9.5t-9.5 23.5t10 23t24 9h14q29 0 54.5 10t44.5 27t30 39.5t11 47.5q0 58 -32.5 93t-91.5 35q-35 0 -64.5 -6.5t-64.5 -24.5q-10 -5 -18 -5q-13 0 -23 9t-10 23q0 9 5 17t15 13q45 23 82.5 30t77.5 7q43 0 79 -14t61 -39t39 -60t14 -78
q0 -47 -23 -87t-61 -66q48 -27 76.5 -72.5t28.5 -100.5q0 -45 -15.5 -82.5t-44 -64.5t-67.5 -42t-86 -15q-48 0 -88.5 9t-78.5 27q-10 5 -15 13t-5 17q0 13 8.5 23t25.5 10q8 0 16 -5q31 -15 63.5 -23t73.5 -8q66 0 104.5 39t38.5 102q0 28 -12 53t-32.5 43.5t-48.5 29.5
t-60 11h-21z" />
    <glyph glyph-name="parenleft.cap" horiz-adv-x="291" 
d="M193 -108q-9 0 -17.5 5t-13.5 14q-53 100 -80 212.5t-27 231.5q0 118 27 231t80 213q5 8 13.5 13t17.5 5q13 0 23 -10t10 -24q0 -9 -4 -16q-49 -93 -74 -197.5t-25 -214.5q0 -111 25 -215t74 -198q4 -7 4 -16q0 -13 -9.5 -23.5t-23.5 -10.5z" />
    <glyph glyph-name="parenright.cap" horiz-adv-x="296" 
d="M134 -89q-5 -9 -13.5 -14t-17.5 -5q-13 0 -23 10t-10 24q0 9 4 16q49 94 74 198t25 215q0 110 -25 214.5t-74 197.5q-4 7 -4 16q0 13 9.5 23.5t24.5 10.5q20 0 30 -18q53 -100 80 -213t27 -231q0 -119 -27 -231.5t-80 -212.5z" />
    <glyph glyph-name="bracketleft.cap" horiz-adv-x="339" 
d="M99 -107q-14 0 -24 9.5t-10 23.5v857q0 14 10 24t24 10h137q13 0 23 -9t10 -23t-9.5 -23.5t-23.5 -9.5h-103v-794h103q14 0 23.5 -9t9.5 -23t-9.5 -23.5t-23.5 -9.5h-137z" />
    <glyph glyph-name="bracketright.cap" horiz-adv-x="344" 
d="M108 -107q-14 0 -23.5 9.5t-9.5 23.5t9.5 23t23.5 9h103v794h-103q-14 0 -23.5 9.5t-9.5 23.5t10 23t23 9h137q14 0 24 -10t10 -24v-857q0 -14 -10 -23.5t-24 -9.5h-137z" />
    <glyph glyph-name="hyphen.cap" horiz-adv-x="414" 
d="M92 322q-14 0 -23 9t-9 23q0 13 9 23t23 10h229q14 0 23.5 -10t9.5 -23q0 -14 -9.5 -23t-23.5 -9h-229z" />
    <glyph glyph-name="l.alt" horiz-adv-x="238" 
d="M75 677q0 14 10 24t24 10t24 -10t10 -24v-592q0 -13 9 -22.5t23 -9.5q5 0 11.5 1.5t14.5 1.5q13 0 22.5 -9t9.5 -23q0 -12 -7.5 -21t-21.5 -11q-7 -1 -14.5 -1.5t-14.5 -0.5q-42 0 -71 29t-29 71v587z" />
    <glyph glyph-name="lslash.alt" horiz-adv-x="302" 
d="M73 272q-9 -6 -19 -6q-13 0 -23.5 8.5t-10.5 23.5q0 19 15 28l82 55v296q0 14 10 24t24 10t24 -10t10 -24v-251l44 29q10 7 20 7q14 0 23.5 -9.5t9.5 -23.5q0 -17 -15 -27l-82 -55v-262q0 -13 9 -22.5t23 -9.5q5 0 11.5 1.5t14.5 1.5q13 0 22.5 -9t9.5 -23
q0 -12 -7.5 -21t-21.5 -11q-7 -1 -14.5 -1.5t-14.5 -0.5q-42 0 -71 29t-29 71v212z" />
    <glyph glyph-name="fl.alt" horiz-adv-x="539" 
d="M70 580q0 27 10.5 51t28 41.5t41.5 28t51 10.5q28 0 57 -6q28 -7 28 -33q0 -16 -10.5 -24t-22.5 -8q-13 0 -24 3t-28 3q-26 0 -44.5 -18.5t-18.5 -44.5v-82h115q14 0 23.5 -9.5t9.5 -23.5t-9.5 -23t-23.5 -9h-115v-412q0 -14 -10 -24t-24 -10t-24 10t-10 24v556zM376 677
q0 14 10 24t24 10t24 -10t10 -24v-592q0 -13 9 -22.5t23 -9.5q5 0 11.5 1.5t14.5 1.5q13 0 22.5 -9t9.5 -23q0 -12 -7.5 -21t-21.5 -11q-7 -1 -14.5 -1.5t-14.5 -0.5q-42 0 -71 29t-29 71v587z" />
    <glyph glyph-name="ampersand.alt" horiz-adv-x="676" 
d="M290 0q-45 0 -82 14t-63.5 40t-40.5 63t-14 82q0 54 27.5 98.5t72.5 70.5q-37 26 -59.5 65t-22.5 86q0 91 56 141.5t156 50.5q62 0 106 -19q10 -4 15 -12.5t5 -18.5q0 -13 -9.5 -21.5t-23.5 -8.5q-8 0 -15 3q-16 6 -35.5 10t-42.5 4q-72 0 -109 -32q-17 -16 -26 -41.5
t-9 -55.5q0 -25 11 -47.5t29.5 -39t43.5 -26t53 -9.5h305q14 0 23.5 -9.5t9.5 -23.5t-10 -23t-23 -9h-87v-285q0 -20 -13.5 -33.5t-33.5 -13.5h-194zM463 332h-156q-32 0 -59 -10.5t-47 -28.5t-31.5 -42.5t-11.5 -51.5q0 -63 34.5 -98.5t97.5 -35.5h173v267z" />
    <glyph glyph-name="endash" unicode="&#x2013;" horiz-adv-x="414" 
d="M92 265q-14 0 -23 9t-9 23q0 13 9 23t23 10h229q14 0 23.5 -10t9.5 -23q0 -14 -9.5 -23t-23.5 -9h-229z" />
    <glyph glyph-name="mu" 
d="M380 477q0 14 10 24t24 10t24 -10t10 -24v-418q0 -15 -8.5 -27t-22.5 -17q-36 -12 -74 -18.5t-77 -6.5q-35 0 -63.5 10t-51.5 27v-216q0 -14 -10 -24t-24 -10t-24 10t-10 24v666q0 14 10 24t24 10t24 -10t10 -24v-309q0 -54 30.5 -84.5t84.5 -30.5q58 0 114 17v407z" />
    <glyph glyph-name="ampersand" unicode="&#x26;" horiz-adv-x="672" 
d="M474 101q-20 -21 -42 -41t-48.5 -35.5t-57.5 -25t-69 -9.5q-39 0 -73 14.5t-59.5 40t-40 59.5t-14.5 73q0 59 32 108q23 35 54.5 60.5t58.5 42.5l-32 36q-57 63 -57 130q0 33 12.5 61.5t34 49.5t50 33.5t60.5 12.5t60.5 -12.5t50 -33.5t34 -49.5t12.5 -61.5
q0 -14 -10 -24t-24 -10t-24 10t-10 24q0 19 -7 36t-19 29.5t-28.5 20t-34.5 7.5t-34.5 -7.5t-28.5 -20t-19 -29.5t-7 -36q0 -42 39 -84l240 -267l89 108q10 13 27 13q14 0 23.5 -9.5t9.5 -24.5q0 -13 -7 -21l-96 -117l95 -105q8 -8 8 -22q0 -13 -9 -24t-24 -11t-26 11z
M259 339q-23 -14 -51.5 -36t-48.5 -53q-11 -16 -16 -35.5t-5 -37.5q0 -24 9.5 -46.5t25.5 -40t37.5 -27.5t46.5 -10q27 0 49.5 7.5t42.5 20.5t39.5 31t39.5 40z" />
    <glyph glyph-name="parenleft" unicode="(" horiz-adv-x="291" 
d="M193 -146q-9 0 -17.5 5t-13.5 14q-53 100 -80 212.5t-27 231.5q0 118 27 231t80 213q5 8 13.5 13t17.5 5q13 0 23 -10t10 -24q0 -9 -4 -16q-49 -93 -74 -197.5t-25 -214.5q0 -111 25 -215t74 -198q4 -7 4 -16q0 -13 -9.5 -23.5t-23.5 -10.5z" />
    <glyph glyph-name="parenright" unicode=")" horiz-adv-x="296" 
d="M134 -127q-5 -9 -13.5 -14t-17.5 -5q-13 0 -23 10t-10 24q0 9 4 16q49 94 74 198t25 215q0 110 -25 214.5t-74 197.5q-4 7 -4 16q0 13 9.5 23.5t24.5 10.5q20 0 30 -18q53 -100 80 -213t27 -231q0 -119 -27 -231.5t-80 -212.5z" />
    <glyph glyph-name="zcaron" unicode="&#x17e;" horiz-adv-x="425" 
d="M70 0q-17 0 -28.5 11.5t-11.5 28.5q0 14 7 24l268 372h-238q-14 0 -24 9t-10 23t10 23.5t24 9.5h284q17 0 29 -12t12 -29q0 -13 -7 -23l-269 -372h245q14 0 24 -9t10 -23t-10 -23.5t-24 -9.5h-291zM239 589q-12 -9 -27 -9t-27 9l-89 62q-15 10 -15 28q0 14 9.5 23t22.5 9
q10 0 19 -6l80 -55l79 55q9 6 19 6q14 0 23.5 -9.5t9.5 -22.5q0 -18 -15 -28z" />
    <glyph glyph-name="period" unicode="." horiz-adv-x="201" 
d="M149 39q0 -20 -14.5 -34.5t-34.5 -14.5t-34 14.5t-14 34.5t14 34t34 14t34.5 -14t14.5 -34z" />
    <glyph glyph-name="four.pnum" 
d="M374 158v-134q0 -14 -10.5 -24t-24.5 -10t-24 10t-10 24v134h-221q-17 0 -29 12t-12 29q0 8 3 16l175 473q8 23 33 23q13 0 22 -10t9 -24q0 -4 -2 -12l-164 -442h186v137q0 14 10 24t24 10t24.5 -10t10.5 -24v-137h78q14 0 23.5 -9t9.5 -23t-9.5 -23.5t-23.5 -9.5h-78z
" />
    <glyph glyph-name="comma" unicode="," horiz-adv-x="201" 
d="M82 64q4 11 12.5 17t19.5 6q14 0 24 -10t10 -23q0 -4 -2 -12l-48 -142q-4 -11 -12.5 -17t-19.5 -6q-14 0 -24 10.5t-10 23.5q0 3 0.5 5.5t1.5 5.5z" />
    <glyph glyph-name="hyphen" unicode="-" horiz-adv-x="414" 
d="M92 265q-14 0 -23 9t-9 23q0 13 9 23t23 10h229q14 0 23.5 -10t9.5 -23q0 -14 -9.5 -23t-23.5 -9h-229z" />
    </font>
</defs>
</svg>
